<svg viewBox="39.5 9.5 578 385" xmlns="http://www.w3.org/2000/svg"><defs><linearGradient id="a" x1="99.013%" x2="2.544%" y1="71.675%" y2="29.014%"><stop offset="0" stop-color="#151515"/><stop offset="1" stop-color="#3D3D3D"/></linearGradient></defs><g fill="none" fill-rule="evenodd"><g transform="translate(39.5 9.5)"><g fill-rule="nonzero"><rect width="578" height="385" rx="26" fill="#000"/><rect width="578" height="385" rx="26" fill="#777"/></g><rect width="574.23" height="381.865" x="2" y="2" fill="url(#a)" fill-rule="nonzero" rx="25"/><g transform="translate(21.03 16.303)"><rect width="471.463" height="353.756" x="33" fill="#2A2A2A" fill-rule="nonzero" opacity=".1" rx="5"/><mask id="b" fill="#fff"><rect width="536" height="346" y="3" rx="8"/></mask><rect width="536" height="346" y="3" rx="8" fill="#E8EAF6" fill-rule="nonzero"/><g mask="url(#b)"><path fill="#5267DF" d="M-3.53 3.197h547v59h-547z"/><g transform="translate(22.47 17.197)" fill="#FFF"><circle cx="16" cy="16" r="16" opacity=".245"/><circle cx="477" cy="16" r="16" opacity=".104"/><g transform="translate(47 6)"><rect width="120" height="6" opacity=".75" rx="3"/><rect width="64" height="6" y="14" opacity=".25" rx="3"/></g></g></g><g mask="url(#b)"><g transform="translate(57 96)"><rect width="261" height="262" fill="#FFF" rx="8"/><rect width="128" height="262" x="295" fill="#FFF" rx="8"/><rect width="120" height="6" x="78.47" y="38.197" fill="#242A45" opacity=".5" rx="3"/></g></g></g></g><g transform="translate(149 144)"><circle cx="16" cy="26" r="16" fill="#F98E5D"/><rect width="88" height="6" x="284" fill="#242A45" opacity=".25" rx="3"/><rect width="88" height="6" x="284" y="20" fill="#242A45" opacity=".25" rx="3"/><rect width="88" height="6" x="284" y="40" fill="#242A45" opacity=".25" rx="3"/><rect width="88" height="6" x="284" y="60" fill="#242A45" opacity=".25" rx="3"/><rect width="88" height="6" x="284" y="94" fill="#242A45" opacity=".25" rx="3"/><rect width="88" height="6" x="284" y="114" fill="#242A45" opacity=".25" rx="3"/><rect width="88" height="6" x="284" y="134" fill="#242A45" opacity=".25" rx="3"/><rect width="64" height="6" x="47" y="30" fill="#242A45" opacity=".25" rx="3"/></g><g transform="translate(149 210)"><circle cx="16" cy="16" r="16" fill="#6AC6D6"/><rect width="120" height="6" x="47" y="6" fill="#242A45" opacity=".5" rx="3"/><rect width="64" height="6" x="47" y="20" fill="#242A45" opacity=".25" rx="3"/></g><g transform="translate(149 266)"><circle cx="16" cy="16" r="16" fill="#A47ED4"/><rect width="120" height="6" x="47" y="6" fill="#242A45" opacity=".5" rx="3"/><rect width="64" height="6" x="47" y="20" fill="#242A45" opacity=".25" rx="3"/></g><g transform="translate(149 322)"><circle cx="16" cy="16" r="16" fill="#EC7878"/><rect width="120" height="6" x="47" y="6" fill="#242A45" opacity=".5" rx="3"/><rect width="64" height="6" x="47" y="20" fill="#242A45" opacity=".25" rx="3"/></g></g></svg>